<svg width="150" height="127" viewBox="0 0 150 127" fill="none" xmlns="http://www.w3.org/2000/svg">
<g clip-path="url(#clip0_49_165)">
<path d="M21.648 25.7386C29.541 25.6332 37.435 25.6158 45.3282 25.6869C49.328 33.3981 54.3859 41.8792 58.7484 49.4535L85.6416 95.5822C83.3917 99.9028 80.6285 104.553 78.2084 108.823C76.8769 111.197 74.5957 114.933 73.7432 117.355C70.5975 111.141 65.4227 102.978 61.8773 96.6795C51.4254 78.1116 40.444 59.7161 30.1328 41.0681C28.6789 38.4382 22.1959 27.6998 21.648 25.7386Z" fill="#545453"/>
<path d="M101.327 24.7671C108.727 24.4581 118.519 24.7746 126.073 24.8078C122.41 31.7708 118.123 38.9824 114.208 45.8563L94.8524 79.8148C93.4566 82.2641 91.9806 84.7608 90.7647 87.2974C88.8145 84.6731 86.9758 81.2343 85.3055 78.3701C82.8653 74.1454 80.3589 69.9596 77.787 65.8139C78.169 65.2202 78.5162 64.6024 78.8773 63.9959C86.5858 51.047 93.8925 37.8738 101.327 24.7671Z" fill="#BE9A62"/>
</g>
<defs>
<clipPath id="clip0_49_165">
<rect width="150" height="127" fill="white"/>
</clipPath>
</defs>
</svg>
