<svg width="549" height="275" viewBox="0 0 549 275" fill="none" xmlns="http://www.w3.org/2000/svg">
<path d="M380.228 102.633C398.207 100.828 414.24 113.951 416.023 131.93C417.805 149.908 404.66 165.921 386.675 167.68C368.726 169.434 352.745 156.321 350.965 138.375C349.188 120.429 362.284 104.435 380.228 102.633ZM407.844 132.315C406.239 118.834 393.993 109.214 380.515 110.844C367.069 112.469 357.481 124.671 359.081 138.117C360.681 151.563 372.867 161.175 386.316 159.601C399.802 158.022 409.447 145.797 407.844 132.315Z" fill="#545453"/>
<path d="M54.648 79.7386C62.541 79.6332 70.435 79.6158 78.3282 79.6869C82.328 87.3981 87.3859 95.8792 91.7484 103.453L118.642 149.582C116.392 153.903 113.629 158.553 111.208 162.823C109.877 165.197 107.596 168.933 106.743 171.355C103.597 165.141 98.4227 156.978 94.8773 150.679C84.4254 132.112 73.444 113.716 63.1328 95.0681C61.6789 92.4382 55.1959 81.6998 54.648 79.7386Z" fill="#545453"/>
<path d="M134.327 78.7671C141.727 78.4581 151.519 78.7746 159.073 78.8078C155.41 85.7708 151.123 92.9824 147.208 99.8563L127.852 133.815C126.457 136.264 124.981 138.761 123.765 141.297C121.814 138.673 119.976 135.234 118.306 132.37C115.865 128.145 113.359 123.96 110.787 119.814C111.169 119.22 111.516 118.602 111.877 117.996C119.586 105.047 126.892 91.8738 134.327 78.7671Z" fill="#BE9A62"/>
<path d="M469.256 102.75C478.756 102.139 487.699 104.34 494.32 111.607C497.038 114.579 498.931 118.21 499.813 122.139C500.697 126.049 500.48 137.775 500.429 142.441C500.346 149.946 500.598 158.662 500.258 166.057C497.464 166.113 494.671 166.125 491.88 166.094C491.553 152.722 492.181 138.811 491.655 125.442C491.344 117.498 484.093 112.947 476.984 110.96C468.548 109.199 456.509 113.627 454.641 122.762C453.783 126.973 454.196 134.289 454.198 138.813C454.228 147.891 454.198 156.969 454.107 166.046L445.518 166.144L445.489 139.264C445.475 135.067 445.183 125.801 445.931 122.064C446.615 118.758 448.046 115.653 450.121 112.988C454.85 106.836 461.704 103.72 469.256 102.75Z" fill="#545453"/>
<path d="M254.31 103.316C263.012 103.038 269.525 105.513 276.583 110.303C275.248 112.36 273.969 114.455 272.752 116.585C265.003 111.338 252.474 107.33 244.29 114.383C242.854 115.691 241.599 117.979 241.649 119.957C241.894 129.475 255.9 130.205 262.931 132.664C271.508 135.663 278.668 139.714 278.272 149.979C278.092 154.247 276.237 158.272 273.106 161.178C267.217 166.591 259.758 167.01 252.186 166.671C244.099 166.03 237.104 163.353 230.95 158.066C232.164 156.022 233.586 153.91 234.885 151.904C242.849 158.45 258.882 163.885 267.87 155.334C269.289 153.984 270.216 150.808 269.975 148.857C268.793 139.262 255.025 139.205 247.964 136.446C244.353 135.303 241.02 133.954 238.08 131.478C231.909 126.279 232.117 116.191 237.325 110.378C241.755 105.435 247.82 103.678 254.31 103.316Z" fill="#545453"/>
<path d="M310.67 104.275L319.238 104.327L319.211 165.99C316.364 166.066 313.514 166.1 310.665 166.091C310.558 145.486 310.558 124.881 310.67 104.275Z" fill="#545453"/>
<path d="M191.311 104.232C193.992 104.282 196.799 104.254 199.489 104.263C199.515 124.389 199.873 145.959 199.434 166.003C196.733 166.003 194.033 166.023 191.332 166.064C190.994 146.225 191.025 124.104 191.311 104.232Z" fill="#545453"/>
<path d="M313.217 79.7352C316.814 78.8126 320.481 80.955 321.446 84.5399C322.409 88.1248 320.307 91.8169 316.734 92.8202C314.386 93.4795 311.863 92.8258 310.131 91.1091C308.4 89.3923 307.724 86.8771 308.362 84.5235C309 82.17 310.855 80.3412 313.217 79.7352Z" fill="#77878C"/>
<path d="M193.869 79.7126C197.497 78.8747 201.118 81.1353 201.957 84.7625C202.796 88.3895 200.536 92.0101 196.909 92.8501C193.28 93.6907 189.657 91.4298 188.817 87.8012C187.978 84.1726 190.24 80.5507 193.869 79.7126Z" fill="#77878C"/>
</svg>
